<svg xmlns="http://www.w3.org/2000/svg" xmlns:xlink="http://www.w3.org/1999/xlink" width="130" zoomAndPan="magnify" viewBox="0 0 97.5 33.749998" height="45" preserveAspectRatio="xMidYMid meet" version="1.0"><defs><g/><clipPath id="002467f8c4"><path d="M 0.109375 5 L 67 5 L 67 29 L 0.109375 29 Z M 0.109375 5 " clip-rule="nonzero"/></clipPath></defs><g clip-path="url(#002467f8c4)"><path fill="#ffffff" d="M 6.890625 5.488281 L 59.953125 5.488281 C 63.746094 5.488281 66.824219 8.5625 66.824219 12.359375 L 66.824219 21.144531 C 66.824219 24.9375 63.746094 28.015625 59.953125 28.015625 L 6.890625 28.015625 C 3.09375 28.015625 0.0195312 24.9375 0.0195312 21.144531 L 0.0195312 12.359375 C 0.0195312 8.5625 3.09375 5.488281 6.890625 5.488281 Z M 6.890625 5.488281 " fill-opacity="1" fill-rule="nonzero"/></g><g fill="#000000" fill-opacity="1"><g transform="translate(5.111968, 21.109286)"><g><path d="M 0.984375 0 L 0.984375 -6.84375 L 2.640625 -6.84375 L 2.640625 -5.84375 L 2.765625 -5.8125 C 3.191406 -6.59375 3.882812 -6.984375 4.84375 -6.984375 C 5.632812 -6.984375 6.210938 -6.765625 6.578125 -6.328125 C 6.953125 -5.898438 7.140625 -5.273438 7.140625 -4.453125 L 7.140625 0 L 5.421875 0 L 5.421875 -4.234375 C 5.421875 -4.691406 5.328125 -5.019531 5.140625 -5.21875 C 4.960938 -5.425781 4.671875 -5.53125 4.265625 -5.53125 C 3.773438 -5.53125 3.390625 -5.367188 3.109375 -5.046875 C 2.835938 -4.734375 2.703125 -4.234375 2.703125 -3.546875 L 2.703125 0 Z M 0.984375 0 "/></g></g></g><g fill="#000000" fill-opacity="1"><g transform="translate(13.137123, 21.109286)"><g><path d="M 6.765625 -3.03125 L 2.359375 -3.03125 C 2.410156 -2.4375 2.582031 -2.003906 2.875 -1.734375 C 3.164062 -1.460938 3.5625 -1.328125 4.0625 -1.328125 C 4.457031 -1.328125 4.773438 -1.398438 5.015625 -1.546875 C 5.265625 -1.691406 5.460938 -1.914062 5.609375 -2.21875 L 5.734375 -2.21875 L 6.875 -1.484375 C 6.65625 -1.003906 6.316406 -0.613281 5.859375 -0.3125 C 5.410156 -0.0195312 4.8125 0.125 4.0625 0.125 C 3.351562 0.125 2.738281 -0.00390625 2.21875 -0.265625 C 1.707031 -0.535156 1.3125 -0.9375 1.03125 -1.46875 C 0.75 -2 0.609375 -2.648438 0.609375 -3.421875 C 0.609375 -4.203125 0.753906 -4.859375 1.046875 -5.390625 C 1.347656 -5.921875 1.75 -6.316406 2.25 -6.578125 C 2.75 -6.847656 3.3125 -6.984375 3.9375 -6.984375 C 4.90625 -6.984375 5.644531 -6.722656 6.15625 -6.203125 C 6.675781 -5.691406 6.9375 -4.941406 6.9375 -3.953125 C 6.9375 -3.585938 6.925781 -3.304688 6.90625 -3.109375 Z M 5.296875 -4.15625 C 5.273438 -4.675781 5.148438 -5.050781 4.921875 -5.28125 C 4.703125 -5.519531 4.375 -5.640625 3.9375 -5.640625 C 3.070312 -5.640625 2.5625 -5.144531 2.40625 -4.15625 Z M 5.296875 -4.15625 "/></g></g></g><g fill="#000000" fill-opacity="1"><g transform="translate(20.584616, 21.109286)"><g><path d="M 7.03125 0 L 0.375 0 L 0.375 -1.578125 L 4.921875 -7.453125 L 4.875 -7.578125 L 0.546875 -7.578125 L 0.546875 -9.078125 L 7 -9.078125 L 7 -7.5 L 2.4375 -1.640625 L 2.484375 -1.5 L 7.03125 -1.5 Z M 7.03125 0 "/></g></g></g><g fill="#000000" fill-opacity="1"><g transform="translate(28.001052, 21.109286)"><g><path d="M 4.78125 0.125 C 3.914062 0.125 3.269531 -0.195312 2.84375 -0.84375 L 2.703125 -0.828125 L 2.703125 0 L 0.984375 0 L 0.984375 -9.59375 L 2.703125 -9.59375 L 2.703125 -6.046875 L 2.84375 -6.015625 C 3.070312 -6.347656 3.347656 -6.59375 3.671875 -6.75 C 3.992188 -6.90625 4.378906 -6.984375 4.828125 -6.984375 C 5.378906 -6.984375 5.863281 -6.851562 6.28125 -6.59375 C 6.695312 -6.332031 7.019531 -5.9375 7.25 -5.40625 C 7.476562 -4.875 7.59375 -4.210938 7.59375 -3.421875 C 7.59375 -2.640625 7.472656 -1.984375 7.234375 -1.453125 C 6.992188 -0.921875 6.660156 -0.523438 6.234375 -0.265625 C 5.816406 -0.00390625 5.332031 0.125 4.78125 0.125 Z M 4.265625 -1.328125 C 4.773438 -1.328125 5.160156 -1.492188 5.421875 -1.828125 C 5.679688 -2.171875 5.8125 -2.703125 5.8125 -3.421875 C 5.8125 -4.148438 5.679688 -4.679688 5.421875 -5.015625 C 5.160156 -5.347656 4.773438 -5.515625 4.265625 -5.515625 C 3.785156 -5.515625 3.398438 -5.34375 3.109375 -5 C 2.828125 -4.65625 2.6875 -4.128906 2.6875 -3.421875 C 2.6875 -2.710938 2.828125 -2.1875 3.109375 -1.84375 C 3.398438 -1.5 3.785156 -1.328125 4.265625 -1.328125 Z M 4.265625 -1.328125 "/></g></g></g><g fill="#000000" fill-opacity="1"><g transform="translate(36.206338, 21.109286)"><g><path d="M 0.984375 0 L 0.984375 -6.84375 L 2.65625 -6.84375 L 2.65625 -5.828125 L 2.78125 -5.8125 C 2.945312 -6.1875 3.164062 -6.460938 3.4375 -6.640625 C 3.707031 -6.816406 4.035156 -6.90625 4.421875 -6.90625 C 4.804688 -6.90625 5.101562 -6.84375 5.3125 -6.71875 L 5.015625 -5.234375 L 4.890625 -5.203125 C 4.773438 -5.242188 4.664062 -5.273438 4.5625 -5.296875 C 4.457031 -5.316406 4.332031 -5.328125 4.1875 -5.328125 C 3.707031 -5.328125 3.335938 -5.160156 3.078125 -4.828125 C 2.828125 -4.492188 2.703125 -3.953125 2.703125 -3.203125 L 2.703125 0 Z M 0.984375 0 "/></g></g></g><g fill="#000000" fill-opacity="1"><g transform="translate(41.579217, 21.109286)"><g><path d="M 1.84375 -7.671875 C 1.53125 -7.671875 1.273438 -7.765625 1.078125 -7.953125 C 0.890625 -8.140625 0.796875 -8.382812 0.796875 -8.6875 C 0.796875 -8.976562 0.890625 -9.21875 1.078125 -9.40625 C 1.273438 -9.59375 1.53125 -9.6875 1.84375 -9.6875 C 2.050781 -9.6875 2.234375 -9.640625 2.390625 -9.546875 C 2.554688 -9.460938 2.679688 -9.34375 2.765625 -9.1875 C 2.859375 -9.039062 2.90625 -8.875 2.90625 -8.6875 C 2.90625 -8.488281 2.859375 -8.3125 2.765625 -8.15625 C 2.679688 -8.007812 2.554688 -7.890625 2.390625 -7.796875 C 2.234375 -7.710938 2.050781 -7.671875 1.84375 -7.671875 Z M 0.984375 0 L 0.984375 -6.84375 L 2.703125 -6.84375 L 2.703125 0 Z M 0.984375 0 "/></g></g></g><g fill="#000000" fill-opacity="1"><g transform="translate(45.2688, 21.109286)"><g><path d="M 4.71875 -1.640625 L 5.171875 -0.359375 C 4.984375 -0.203125 4.75 -0.0820312 4.46875 0 C 4.1875 0.0820312 3.867188 0.125 3.515625 0.125 C 2.773438 0.125 2.210938 -0.0703125 1.828125 -0.46875 C 1.441406 -0.875 1.25 -1.460938 1.25 -2.234375 L 1.25 -5.484375 L 0.203125 -5.484375 L 0.203125 -6.859375 L 1.25 -6.859375 L 1.25 -8.1875 L 2.96875 -8.46875 L 2.96875 -6.859375 L 4.90625 -6.859375 L 4.90625 -5.484375 L 2.96875 -5.484375 L 2.96875 -2.359375 C 2.96875 -2.015625 3.035156 -1.765625 3.171875 -1.609375 C 3.316406 -1.460938 3.523438 -1.390625 3.796875 -1.390625 C 4.097656 -1.390625 4.363281 -1.472656 4.59375 -1.640625 Z M 4.71875 -1.640625 "/></g></g></g><g fill="#000000" fill-opacity="1"><g transform="translate(50.591987, 21.109286)"><g><path d="M 1.84375 -7.671875 C 1.53125 -7.671875 1.273438 -7.765625 1.078125 -7.953125 C 0.890625 -8.140625 0.796875 -8.382812 0.796875 -8.6875 C 0.796875 -8.976562 0.890625 -9.21875 1.078125 -9.40625 C 1.273438 -9.59375 1.53125 -9.6875 1.84375 -9.6875 C 2.050781 -9.6875 2.234375 -9.640625 2.390625 -9.546875 C 2.554688 -9.460938 2.679688 -9.34375 2.765625 -9.1875 C 2.859375 -9.039062 2.90625 -8.875 2.90625 -8.6875 C 2.90625 -8.488281 2.859375 -8.3125 2.765625 -8.15625 C 2.679688 -8.007812 2.554688 -7.890625 2.390625 -7.796875 C 2.234375 -7.710938 2.050781 -7.671875 1.84375 -7.671875 Z M 0.53125 2.90625 C 0.03125 2.90625 -0.375 2.835938 -0.6875 2.703125 L -0.46875 1.359375 L -0.359375 1.3125 C -0.191406 1.394531 0.00390625 1.4375 0.234375 1.4375 C 0.734375 1.4375 0.984375 1.140625 0.984375 0.546875 L 0.984375 -6.84375 L 2.703125 -6.84375 L 2.703125 0.484375 C 2.703125 1.285156 2.519531 1.890625 2.15625 2.296875 C 1.789062 2.703125 1.25 2.90625 0.53125 2.90625 Z M 0.53125 2.90625 "/></g></g></g><g fill="#000000" fill-opacity="1"><g transform="translate(54.281571, 21.109286)"><g><path d="M 6.765625 -3.03125 L 2.359375 -3.03125 C 2.410156 -2.4375 2.582031 -2.003906 2.875 -1.734375 C 3.164062 -1.460938 3.5625 -1.328125 4.0625 -1.328125 C 4.457031 -1.328125 4.773438 -1.398438 5.015625 -1.546875 C 5.265625 -1.691406 5.460938 -1.914062 5.609375 -2.21875 L 5.734375 -2.21875 L 6.875 -1.484375 C 6.65625 -1.003906 6.316406 -0.613281 5.859375 -0.3125 C 5.410156 -0.0195312 4.8125 0.125 4.0625 0.125 C 3.351562 0.125 2.738281 -0.00390625 2.21875 -0.265625 C 1.707031 -0.535156 1.3125 -0.9375 1.03125 -1.46875 C 0.75 -2 0.609375 -2.648438 0.609375 -3.421875 C 0.609375 -4.203125 0.753906 -4.859375 1.046875 -5.390625 C 1.347656 -5.921875 1.75 -6.316406 2.25 -6.578125 C 2.75 -6.847656 3.3125 -6.984375 3.9375 -6.984375 C 4.90625 -6.984375 5.644531 -6.722656 6.15625 -6.203125 C 6.675781 -5.691406 6.9375 -4.941406 6.9375 -3.953125 C 6.9375 -3.585938 6.925781 -3.304688 6.90625 -3.109375 Z M 5.296875 -4.15625 C 5.273438 -4.675781 5.148438 -5.050781 4.921875 -5.28125 C 4.703125 -5.519531 4.375 -5.640625 3.9375 -5.640625 C 3.070312 -5.640625 2.5625 -5.144531 2.40625 -4.15625 Z M 5.296875 -4.15625 "/></g></g></g><path fill="#ffed00" d="M 63.273438 7.273438 L 93.261719 7.273438 C 93.738281 7.273438 94.199219 7.460938 94.535156 7.800781 C 94.875 8.136719 95.0625 8.597656 95.0625 9.074219 L 95.0625 24.4375 C 95.0625 24.914062 94.875 25.375 94.535156 25.710938 C 94.199219 26.050781 93.738281 26.238281 93.261719 26.238281 L 63.273438 26.238281 C 62.28125 26.238281 61.472656 25.433594 61.472656 24.4375 L 61.472656 9.074219 C 61.472656 8.078125 62.28125 7.273438 63.273438 7.273438 Z M 63.273438 7.273438 " fill-opacity="1" fill-rule="nonzero"/><g fill="#000000" fill-opacity="1"><g transform="translate(63.007374, 21.114568)"><g><path d="M 1.765625 0.0625 C 1.535156 0.0625 1.335938 0.015625 1.171875 -0.078125 C 1.003906 -0.171875 0.875 -0.296875 0.78125 -0.453125 C 0.695312 -0.609375 0.65625 -0.785156 0.65625 -0.984375 C 0.65625 -1.179688 0.695312 -1.359375 0.78125 -1.515625 C 0.875 -1.679688 1.003906 -1.804688 1.171875 -1.890625 C 1.335938 -1.984375 1.535156 -2.03125 1.765625 -2.03125 C 1.984375 -2.03125 2.175781 -1.984375 2.34375 -1.890625 C 2.519531 -1.804688 2.648438 -1.6875 2.734375 -1.53125 C 2.828125 -1.375 2.875 -1.195312 2.875 -1 C 2.875 -0.6875 2.769531 -0.429688 2.5625 -0.234375 C 2.363281 -0.0351562 2.097656 0.0625 1.765625 0.0625 Z M 1.765625 0.0625 "/></g></g></g><g fill="#000000" fill-opacity="1"><g transform="translate(66.531857, 21.114568)"><g><path d="M 4.015625 0.125 C 3.347656 0.125 2.757812 -0.0078125 2.25 -0.28125 C 1.738281 -0.5625 1.335938 -0.96875 1.046875 -1.5 C 0.765625 -2.039062 0.625 -2.6875 0.625 -3.4375 C 0.625 -4.195312 0.765625 -4.84375 1.046875 -5.375 C 1.335938 -5.914062 1.734375 -6.320312 2.234375 -6.59375 C 2.742188 -6.875 3.328125 -7.015625 3.984375 -7.015625 C 5.429688 -7.015625 6.359375 -6.488281 6.765625 -5.4375 L 5.578125 -4.59375 L 5.453125 -4.59375 C 5.316406 -4.914062 5.132812 -5.15625 4.90625 -5.3125 C 4.675781 -5.46875 4.367188 -5.546875 3.984375 -5.546875 C 3.484375 -5.546875 3.09375 -5.375 2.8125 -5.03125 C 2.53125 -4.6875 2.390625 -4.15625 2.390625 -3.4375 C 2.390625 -2.726562 2.53125 -2.195312 2.8125 -1.84375 C 3.101562 -1.5 3.503906 -1.328125 4.015625 -1.328125 C 4.390625 -1.328125 4.707031 -1.425781 4.96875 -1.625 C 5.226562 -1.832031 5.410156 -2.128906 5.515625 -2.515625 L 5.65625 -2.515625 L 6.890625 -1.84375 C 6.710938 -1.257812 6.382812 -0.785156 5.90625 -0.421875 C 5.4375 -0.0546875 4.804688 0.125 4.015625 0.125 Z M 4.015625 0.125 "/></g></g></g><g fill="#000000" fill-opacity="1"><g transform="translate(73.624487, 21.114568)"><g><path d="M 4 0.125 C 3.320312 0.125 2.726562 -0.0078125 2.21875 -0.28125 C 1.707031 -0.5625 1.3125 -0.96875 1.03125 -1.5 C 0.757812 -2.03125 0.625 -2.675781 0.625 -3.4375 C 0.625 -4.195312 0.757812 -4.84375 1.03125 -5.375 C 1.3125 -5.914062 1.707031 -6.320312 2.21875 -6.59375 C 2.726562 -6.875 3.320312 -7.015625 4 -7.015625 C 4.675781 -7.015625 5.269531 -6.875 5.78125 -6.59375 C 6.289062 -6.320312 6.6875 -5.914062 6.96875 -5.375 C 7.25 -4.84375 7.390625 -4.195312 7.390625 -3.4375 C 7.390625 -2.675781 7.25 -2.03125 6.96875 -1.5 C 6.6875 -0.96875 6.289062 -0.5625 5.78125 -0.28125 C 5.269531 -0.0078125 4.675781 0.125 4 0.125 Z M 4 -1.328125 C 5.070312 -1.328125 5.609375 -2.03125 5.609375 -3.4375 C 5.609375 -4.164062 5.46875 -4.695312 5.1875 -5.03125 C 4.914062 -5.375 4.519531 -5.546875 4 -5.546875 C 2.925781 -5.546875 2.390625 -4.84375 2.390625 -3.4375 C 2.390625 -2.03125 2.925781 -1.328125 4 -1.328125 Z M 4 -1.328125 "/></g></g></g><g fill="#000000" fill-opacity="1"><g transform="translate(81.621631, 21.114568)"><g><path d="M 1 0 L 1 -6.890625 L 2.65625 -6.890625 L 2.65625 -5.953125 L 2.78125 -5.9375 C 3.007812 -6.300781 3.273438 -6.570312 3.578125 -6.75 C 3.878906 -6.925781 4.265625 -7.015625 4.734375 -7.015625 C 5.253906 -7.015625 5.671875 -6.910156 5.984375 -6.703125 C 6.296875 -6.492188 6.523438 -6.191406 6.671875 -5.796875 L 6.8125 -5.796875 C 7.019531 -6.210938 7.289062 -6.519531 7.625 -6.71875 C 7.957031 -6.914062 8.375 -7.015625 8.875 -7.015625 C 10.300781 -7.015625 11.015625 -6.21875 11.015625 -4.625 L 11.015625 0 L 9.296875 0 L 9.296875 -4.40625 C 9.296875 -4.8125 9.210938 -5.101562 9.046875 -5.28125 C 8.890625 -5.457031 8.640625 -5.546875 8.296875 -5.546875 C 7.347656 -5.546875 6.875 -4.914062 6.875 -3.65625 L 6.875 0 L 5.140625 0 L 5.140625 -4.40625 C 5.140625 -4.8125 5.054688 -5.101562 4.890625 -5.28125 C 4.734375 -5.457031 4.484375 -5.546875 4.140625 -5.546875 C 3.691406 -5.546875 3.34375 -5.394531 3.09375 -5.09375 C 2.84375 -4.800781 2.71875 -4.332031 2.71875 -3.6875 L 2.71875 0 Z M 1 0 "/></g></g></g></svg>