<svg xmlns="http://www.w3.org/2000/svg" xmlns:xlink="http://www.w3.org/1999/xlink" width="500" zoomAndPan="magnify" viewBox="0 0 375 374.999991" height="500" preserveAspectRatio="xMidYMid meet" version="1.0"><defs><g/><clipPath id="79393d4b20"><path d="M 0 153.558594 L 90 153.558594 L 90 211 L 0 211 Z M 0 153.558594 " clip-rule="nonzero"/></clipPath><clipPath id="3aac4221da"><path d="M 55 215 L 78 215 L 78 237.558594 L 55 237.558594 Z M 55 215 " clip-rule="nonzero"/></clipPath><clipPath id="7dde5f4a1e"><path d="M 23 215 L 46 215 L 46 237.558594 L 23 237.558594 Z M 23 215 " clip-rule="nonzero"/></clipPath><clipPath id="f9149bb78f"><path d="M 36.574219 119.21875 L 68.074219 119.21875 L 68.074219 153.71875 L 36.574219 153.71875 Z M 36.574219 119.21875 " clip-rule="nonzero"/></clipPath></defs><g clip-path="url(#79393d4b20)"><path fill="#11002a" d="M 86.808594 163.40625 C 86.199219 163.386719 85.585938 163.398438 84.976562 163.398438 C 64.148438 163.398438 43.320312 163.398438 22.492188 163.398438 C 21.695312 163.398438 20.898438 163.398438 20.054688 163.398438 C 19.347656 160.71875 18.671875 158.21875 18.039062 155.710938 C 17.746094 154.542969 17.191406 153.613281 15.90625 153.601562 C 11.292969 153.558594 6.679688 153.558594 2.066406 153.601562 C 0.808594 153.613281 0.0273438 154.382812 0.0078125 155.671875 C -0.0078125 156.953125 0.71875 157.695312 1.996094 157.816406 C 2.601562 157.875 3.214844 157.851562 3.824219 157.851562 C 7.210938 157.851562 10.59375 157.851562 14.097656 157.851562 C 14.316406 158.554688 14.476562 159.003906 14.59375 159.464844 C 18.683594 175.441406 22.765625 191.414062 26.84375 207.394531 C 27.621094 210.445312 27.808594 210.617188 31.007812 210.617188 C 45.183594 210.621094 59.367188 210.621094 73.542969 210.621094 C 76.019531 210.621094 77.019531 210.019531 77.074219 208.523438 C 77.132812 206.953125 76.078125 206.277344 73.492188 206.273438 C 61.417969 206.269531 49.339844 206.269531 37.265625 206.269531 C 35.632812 206.269531 34.003906 206.34375 32.382812 206.226562 C 31.832031 206.1875 30.96875 205.792969 30.835938 205.371094 C 30.21875 203.4375 29.816406 201.4375 29.25 199.121094 C 31.089844 199.121094 32.699219 199.121094 34.3125 199.121094 C 48.078125 199.121094 61.84375 199.121094 75.609375 199.117188 C 78.234375 199.117188 78.527344 198.898438 79.382812 196.351562 C 80.554688 192.863281 81.714844 189.371094 82.882812 185.878906 C 85.003906 179.539062 87.144531 173.210938 89.242188 166.867188 C 89.984375 164.605469 89.164062 163.480469 86.808594 163.40625 Z M 81.425781 176.71875 C 79.585938 182.210938 77.710938 187.691406 75.925781 193.199219 C 75.546875 194.371094 74.984375 194.792969 73.757812 194.777344 C 65.492188 194.679688 57.230469 194.621094 48.964844 194.605469 C 45.058594 194.59375 41.152344 194.722656 37.246094 194.753906 C 34.546875 194.777344 31.839844 194.796875 29.140625 194.703125 C 28.6875 194.6875 27.972656 194.167969 27.863281 193.75 C 25.609375 185.195312 23.425781 176.621094 21.175781 167.855469 C 42.253906 167.855469 63.148438 167.855469 84.367188 167.855469 C 83.347656 170.933594 82.390625 173.828125 81.425781 176.71875 Z M 81.425781 176.71875 " fill-opacity="1" fill-rule="nonzero"/></g><g clip-path="url(#3aac4221da)"><path fill="#11002a" d="M 66.585938 215.203125 C 60.480469 215.214844 55.46875 220.335938 55.5625 226.472656 C 55.652344 232.582031 60.605469 237.4375 66.691406 237.378906 C 72.789062 237.320312 77.632812 232.378906 77.585938 226.265625 C 77.539062 220.160156 72.597656 215.191406 66.585938 215.203125 Z M 66.496094 233.085938 C 62.808594 233.03125 59.835938 229.945312 59.890625 226.226562 C 59.941406 222.472656 62.9375 219.550781 66.683594 219.59375 C 70.40625 219.640625 73.339844 222.667969 73.292969 226.417969 C 73.242188 230.125 70.167969 233.140625 66.496094 233.085938 Z M 66.496094 233.085938 " fill-opacity="1" fill-rule="nonzero"/></g><g clip-path="url(#7dde5f4a1e)"><path fill="#11002a" d="M 35.113281 215.207031 C 29.152344 215.015625 24.035156 219.941406 23.878906 226.027344 C 23.714844 232.160156 28.453125 237.214844 34.527344 237.375 C 40.71875 237.539062 45.769531 232.714844 45.890625 226.511719 C 46.007812 220.457031 41.1875 215.40625 35.113281 215.207031 Z M 34.757812 233.082031 C 31.074219 233.015625 28.101562 229.921875 28.15625 226.214844 C 28.214844 222.488281 31.230469 219.5625 34.976562 219.597656 C 38.6875 219.632812 41.613281 222.667969 41.566406 226.4375 C 41.523438 230.140625 38.4375 233.152344 34.757812 233.082031 Z M 34.757812 233.082031 " fill-opacity="1" fill-rule="nonzero"/></g><g clip-path="url(#f9149bb78f)"><path fill="#000000" d="M 61.734375 123.175781 C 62.257812 122.648438 62.949219 122.382812 63.640625 122.382812 C 64.328125 122.382812 65.019531 122.648438 65.546875 123.175781 L 65.546875 123.179688 C 66.074219 123.710938 66.335938 124.402344 66.335938 125.09375 C 66.335938 125.789062 66.074219 126.484375 65.546875 127.011719 L 42.917969 149.765625 C 42.390625 150.292969 41.699219 150.558594 41.011719 150.558594 C 40.320312 150.558594 39.628906 150.292969 39.101562 149.765625 C 38.578125 149.230469 38.3125 148.539062 38.3125 147.847656 C 38.3125 147.152344 38.578125 146.460938 39.101562 145.929688 Z M 62.792969 124.242188 L 40.164062 146.996094 C 39.929688 147.230469 39.8125 147.539062 39.8125 147.847656 C 39.8125 148.15625 39.929688 148.464844 40.160156 148.699219 L 40.164062 148.699219 C 40.398438 148.933594 40.703125 149.050781 41.011719 149.050781 C 41.316406 149.050781 41.625 148.933594 41.859375 148.699219 L 64.488281 125.945312 C 64.722656 125.710938 64.839844 125.402344 64.839844 125.09375 C 64.839844 124.785156 64.722656 124.476562 64.488281 124.238281 C 64.253906 124.007812 63.945312 123.886719 63.640625 123.886719 C 63.332031 123.886719 63.023438 124.007812 62.792969 124.242188 Z M 60.746094 153.722656 C 59.765625 153.722656 58.824219 153.523438 57.964844 153.164062 C 57.070312 152.792969 56.269531 152.25 55.597656 151.574219 C 54.925781 150.894531 54.382812 150.085938 54.011719 149.191406 C 53.652344 148.324219 53.453125 147.378906 53.453125 146.390625 C 53.453125 145.402344 53.652344 144.457031 54.007812 143.59375 C 54.28125 142.933594 54.648438 142.320312 55.09375 141.769531 L 55.0625 141.738281 L 55.589844 141.207031 C 56.261719 140.53125 57.066406 139.988281 57.960938 139.613281 C 58.824219 139.257812 59.765625 139.058594 60.746094 139.058594 C 61.730469 139.058594 62.667969 139.257812 63.53125 139.613281 C 64.421875 139.984375 65.222656 140.53125 65.894531 141.207031 C 66.570312 141.882812 67.113281 142.691406 67.484375 143.589844 C 67.84375 144.457031 68.039062 145.402344 68.039062 146.390625 C 68.039062 147.378906 67.84375 148.324219 67.484375 149.191406 C 67.113281 150.089844 66.570312 150.898438 65.894531 151.574219 C 65.21875 152.25 64.417969 152.792969 63.53125 153.164062 C 62.671875 153.523438 61.730469 153.722656 60.746094 153.722656 Z M 58.539062 151.777344 C 59.214844 152.058594 59.964844 152.214844 60.746094 152.214844 C 61.53125 152.214844 62.277344 152.058594 62.957031 151.777344 C 63.664062 151.480469 64.304688 151.046875 64.839844 150.511719 C 65.375 149.96875 65.808594 149.324219 66.101562 148.613281 C 66.382812 147.929688 66.542969 147.179688 66.542969 146.390625 C 66.542969 145.601562 66.386719 144.851562 66.101562 144.167969 C 65.808594 143.457031 65.375 142.8125 64.835938 142.269531 C 64.304688 141.734375 63.664062 141.300781 62.957031 141.003906 C 62.277344 140.722656 61.53125 140.566406 60.746094 140.566406 C 59.957031 140.566406 59.207031 140.722656 58.527344 141.003906 C 57.898438 141.265625 57.324219 141.640625 56.828125 142.097656 L 56.652344 142.269531 C 56.117188 142.8125 55.683594 143.453125 55.390625 144.167969 C 55.109375 144.851562 54.953125 145.601562 54.953125 146.390625 C 54.953125 147.179688 55.109375 147.929688 55.390625 148.613281 C 55.6875 149.328125 56.117188 149.972656 56.65625 150.511719 C 57.195312 151.046875 57.832031 151.484375 58.539062 151.777344 Z M 59.398438 147.738281 C 59.742188 148.085938 60.21875 148.296875 60.746094 148.296875 C 61.011719 148.296875 61.261719 148.246094 61.480469 148.15625 C 61.714844 148.058594 61.925781 147.914062 62.101562 147.738281 C 62.273438 147.566406 62.410156 147.359375 62.507812 147.125 C 62.59375 146.90625 62.644531 146.65625 62.644531 146.390625 C 62.644531 146.125 62.59375 145.875 62.507812 145.65625 C 62.410156 145.421875 62.273438 145.214844 62.101562 145.042969 C 61.925781 144.863281 61.714844 144.722656 61.480469 144.625 C 61.261719 144.535156 61.011719 144.484375 60.746094 144.484375 C 60.484375 144.484375 60.238281 144.535156 60.019531 144.625 C 59.789062 144.71875 59.582031 144.863281 59.40625 145.042969 L 59.28125 145.164062 C 59.164062 145.308594 59.0625 145.476562 58.988281 145.65625 C 58.898438 145.875 58.851562 146.125 58.851562 146.390625 C 58.851562 146.65625 58.898438 146.90625 58.988281 147.125 C 59.085938 147.359375 59.222656 147.566406 59.394531 147.738281 Z M 60.746094 149.804688 C 59.804688 149.804688 58.953125 149.421875 58.339844 148.804688 C 58.03125 148.492188 57.777344 148.117188 57.609375 147.699219 C 57.441406 147.292969 57.351562 146.851562 57.351562 146.390625 C 57.351562 145.933594 57.441406 145.488281 57.609375 145.082031 C 57.777344 144.671875 58.023438 144.300781 58.324219 143.992188 L 58.839844 143.40625 L 58.9375 143.503906 C 59.097656 143.402344 59.269531 143.3125 59.453125 143.234375 C 59.855469 143.066406 60.292969 142.976562 60.75 142.976562 C 61.207031 142.976562 61.644531 143.066406 62.050781 143.234375 C 62.46875 143.410156 62.84375 143.664062 63.15625 143.976562 C 63.464844 144.289062 63.71875 144.664062 63.886719 145.082031 C 64.054688 145.488281 64.144531 145.929688 64.144531 146.390625 C 64.144531 146.847656 64.054688 147.289062 63.886719 147.695312 C 63.71875 148.117188 63.464844 148.492188 63.15625 148.804688 C 62.84375 149.117188 62.46875 149.371094 62.050781 149.542969 C 61.644531 149.710938 61.207031 149.804688 60.746094 149.804688 Z M 43.902344 119.21875 C 44.886719 119.21875 45.824219 119.417969 46.683594 119.773438 C 47.578125 120.148438 48.382812 120.691406 49.050781 121.367188 C 49.726562 122.046875 50.269531 122.855469 50.640625 123.75 C 50.996094 124.617188 51.195312 125.5625 51.195312 126.550781 C 51.195312 127.539062 50.996094 128.480469 50.640625 129.347656 C 50.367188 130.007812 50 130.621094 49.554688 131.167969 L 49.585938 131.199219 L 49.058594 131.730469 C 48.386719 132.40625 47.582031 132.953125 46.6875 133.324219 C 45.824219 133.683594 44.882812 133.882812 43.902344 133.882812 C 42.917969 133.882812 41.980469 133.683594 41.117188 133.324219 C 40.230469 132.953125 39.425781 132.410156 38.757812 131.734375 L 38.753906 131.734375 C 38.078125 131.058594 37.535156 130.25 37.164062 129.351562 C 36.808594 128.484375 36.609375 127.539062 36.609375 126.550781 C 36.609375 125.5625 36.808594 124.617188 37.164062 123.75 C 37.539062 122.851562 38.082031 122.042969 38.753906 121.367188 L 38.757812 121.367188 C 39.429688 120.691406 40.230469 120.148438 41.121094 119.773438 C 41.980469 119.417969 42.917969 119.21875 43.902344 119.21875 Z M 46.113281 121.164062 C 45.433594 120.882812 44.6875 120.726562 43.902344 120.726562 C 43.117188 120.726562 42.371094 120.882812 41.691406 121.164062 C 40.984375 121.460938 40.347656 121.894531 39.8125 122.429688 C 39.273438 122.972656 38.84375 123.617188 38.546875 124.328125 C 38.265625 125.011719 38.109375 125.761719 38.109375 126.550781 C 38.109375 127.339844 38.265625 128.089844 38.546875 128.773438 C 38.84375 129.484375 39.273438 130.128906 39.8125 130.667969 C 40.347656 131.207031 40.984375 131.640625 41.695312 131.9375 C 42.371094 132.21875 43.117188 132.375 43.902344 132.375 C 44.695312 132.375 45.441406 132.21875 46.121094 131.9375 C 46.753906 131.675781 47.328125 131.300781 47.824219 130.84375 L 47.996094 130.667969 C 48.53125 130.128906 48.964844 129.488281 49.257812 128.773438 C 49.542969 128.089844 49.695312 127.339844 49.695312 126.550781 C 49.695312 125.761719 49.542969 125.011719 49.257812 124.328125 C 48.964844 123.613281 48.53125 122.96875 47.996094 122.429688 L 47.992188 122.429688 C 47.457031 121.894531 46.816406 121.457031 46.113281 121.164062 Z M 45.253906 125.203125 C 44.910156 124.855469 44.433594 124.644531 43.902344 124.644531 C 43.636719 124.644531 43.390625 124.691406 43.167969 124.785156 C 42.9375 124.882812 42.726562 125.023438 42.550781 125.203125 C 42.378906 125.375 42.238281 125.582031 42.144531 125.816406 C 42.054688 126.035156 42.003906 126.285156 42.003906 126.550781 C 42.003906 126.816406 42.054688 127.066406 42.144531 127.285156 C 42.238281 127.519531 42.378906 127.726562 42.550781 127.898438 C 42.726562 128.078125 42.9375 128.21875 43.167969 128.316406 C 43.390625 128.40625 43.636719 128.457031 43.902344 128.457031 C 44.164062 128.457031 44.410156 128.40625 44.632812 128.316406 C 44.859375 128.21875 45.066406 128.078125 45.246094 127.898438 L 45.367188 127.777344 C 45.488281 127.628906 45.585938 127.464844 45.660156 127.285156 C 45.75 127.066406 45.800781 126.816406 45.800781 126.550781 C 45.800781 126.285156 45.75 126.035156 45.660156 125.816406 C 45.566406 125.582031 45.425781 125.375 45.253906 125.203125 Z M 43.902344 123.136719 C 44.84375 123.136719 45.695312 123.519531 46.3125 124.136719 C 46.621094 124.449219 46.871094 124.824219 47.039062 125.242188 C 47.207031 125.648438 47.296875 126.089844 47.296875 126.550781 C 47.296875 127.007812 47.207031 127.449219 47.039062 127.855469 C 46.871094 128.269531 46.628906 128.636719 46.324219 128.949219 L 45.8125 129.535156 L 45.714844 129.4375 C 45.550781 129.539062 45.378906 129.628906 45.199219 129.703125 C 44.796875 129.871094 44.355469 129.964844 43.902344 129.964844 C 43.445312 129.964844 43.003906 129.871094 42.601562 129.703125 C 42.183594 129.53125 41.808594 129.277344 41.496094 128.964844 C 41.183594 128.652344 40.933594 128.277344 40.761719 127.859375 C 40.597656 127.453125 40.503906 127.011719 40.503906 126.550781 C 40.503906 126.09375 40.597656 125.652344 40.761719 125.246094 C 40.933594 124.828125 41.183594 124.449219 41.496094 124.136719 C 41.808594 123.824219 42.183594 123.570312 42.601562 123.398438 C 43.003906 123.230469 43.445312 123.136719 43.902344 123.136719 Z M 43.902344 123.136719 " fill-opacity="1" fill-rule="nonzero"/></g><g fill="#000000" fill-opacity="1"><g transform="translate(103.979851, 199.327682)"><g><path d="M 28.015625 -35.84375 L 28.015625 -35.59375 C 30.109375 -35.328125 31.90625 -33.75 31.90625 -26.78125 L 31.90625 -8.1875 L 11.015625 -33.078125 C 9.9375 -34.3125 9.46875 -35.234375 9.109375 -35.84375 L 0.515625 -35.84375 C 2.15625 -35.015625 3.4375 -33.84375 5.171875 -31.796875 L 5.171875 -8.03125 C 5.171875 -1.078125 3.375 -0.515625 1.28125 -0.25 L 1.28125 0 L 10.09375 0 L 10.09375 -0.25 C 7.984375 -0.515625 6.203125 -2.09375 6.203125 -9.0625 L 6.203125 -30.5625 L 33.125 1.4375 L 33.234375 1.328125 C 33.125 -0.515625 32.96875 -3.171875 32.96875 -8.5 L 32.96875 -27.796875 C 32.96875 -34.765625 34.765625 -35.328125 36.859375 -35.59375 L 36.859375 -35.84375 Z M 28.015625 -35.84375 "/></g></g></g><g fill="#000000" fill-opacity="1"><g transform="translate(140.590931, 199.327682)"><g><path d="M 25.703125 -5.125 C 24.109375 -2.921875 19.921875 -1.890625 17.203125 -1.890625 C 11.0625 -1.890625 7.0625 -7.21875 7.015625 -14.234375 L 21.65625 -14.234375 C 28.0625 -14.234375 26.875 -25.140625 16.234375 -25.140625 C 8.8125 -25.140625 2.046875 -20.078125 2.046875 -11.828125 C 2.046875 -4.09375 7.890625 0.359375 15 0.359375 C 20.28125 0.359375 24.421875 -2.046875 25.953125 -4.921875 Z M 14.390625 -24.21875 C 21.046875 -24.21875 22.734375 -15.265625 19.609375 -15.203125 L 7.015625 -15.046875 C 7.265625 -20.84375 10.234375 -24.21875 14.390625 -24.21875 Z M 14.390625 -24.21875 "/></g></g></g><g fill="#000000" fill-opacity="1"><g transform="translate(167.063491, 199.327682)"><g/></g></g><g fill="#000000" fill-opacity="1"><g transform="translate(176.280077, 199.327682)"><g><path d="M 32.265625 -35.640625 L 32.265625 -35.84375 L 4.5625 -35.84375 L 2.96875 -25.546875 L 3.171875 -25.546875 C 5.84375 -33.53125 8.859375 -35.015625 16.75 -35.015625 L 24.328125 -35.015625 L 7.421875 -7.78125 C 4.359375 -2.875 2.609375 -0.671875 1.03125 0 L 30.671875 0 L 32.265625 -10.1875 L 32.046875 -10.1875 C 29.390625 -2.296875 26.375 -0.8125 17.96875 -0.8125 L 9.171875 -0.8125 L 26.875 -29.5 C 29.703125 -34 30.71875 -35.328125 32.265625 -35.640625 Z M 32.265625 -35.640625 "/></g></g></g><g fill="#000000" fill-opacity="1"><g transform="translate(208.538758, 199.327682)"><g><path d="M 15.5625 -25.140625 C 12.4375 -25.140625 10.03125 -24.375 8.34375 -23.1875 L 8.34375 -37.171875 L 8.609375 -39.171875 L -0.515625 -34.875 L -0.515625 -34.5625 C 2.65625 -35.53125 3.640625 -35.796875 3.640625 -33.75 L 3.640625 -6.046875 C 3.640625 -2.71875 2.921875 -1.796875 1.171875 -1.4375 L 1.171875 -1.375 C 5.734375 0.046875 9.625 0.359375 12.140625 0.359375 C 23.046875 0.359375 28.109375 -5.6875 28.109375 -13.0625 C 28.109375 -20.21875 23.40625 -25.140625 15.5625 -25.140625 Z M 15 -0.671875 C 12.078125 -0.671875 9.984375 -1.59375 8.34375 -3.015625 L 8.34375 -22.125 C 9.625 -23.1875 11.3125 -23.90625 13.359375 -23.90625 C 19.203125 -23.90625 23.09375 -18.078125 23.09375 -10.234375 C 23.09375 -3.125 19.8125 -0.671875 15 -0.671875 Z M 15 -0.671875 "/></g></g></g><g fill="#000000" fill-opacity="1"><g transform="translate(237.673963, 199.327682)"><g><path d="M 16.484375 -25.09375 C 13.0625 -25.09375 10.1875 -22.9375 9.015625 -19.65625 L 8.34375 -19.65625 L 8.34375 -21.296875 L 8.609375 -25.09375 L 0.515625 -24.328125 L 0.515625 -24.109375 C 1.59375 -24.015625 2.921875 -23.65625 3.640625 -23.1875 L 3.640625 -3.53125 L 3.375 0 L 10.34375 0 C 8.8125 -1.03125 8.34375 -2 8.34375 -4.765625 L 8.34375 -15.359375 C 8.859375 -18.9375 10.5 -22.21875 13.109375 -22.21875 C 14.75 -22.21875 15.96875 -20.734375 14.59375 -17.3125 L 14.796875 -17.3125 L 19.203125 -24.46875 C 18.234375 -24.9375 17.40625 -25.09375 16.484375 -25.09375 Z M 16.484375 -25.09375 "/></g></g></g><g fill="#000000" fill-opacity="1"><g transform="translate(256.619435, 199.327682)"><g><path d="M 5.6875 -30.421875 C 7.328125 -30.421875 8.609375 -31.6875 8.609375 -33.390625 C 8.609375 -35.015625 7.328125 -36.296875 5.6875 -36.296875 C 4 -36.296875 2.71875 -35.015625 2.71875 -33.390625 C 2.71875 -31.6875 4 -30.421875 5.6875 -30.421875 Z M 3.328125 0 L 10.34375 0 C 8.8125 -1.03125 8.34375 -2 8.34375 -4.765625 L 8.34375 -21.296875 L 8.609375 -25.09375 L 0.515625 -24.328125 L 0.515625 -24.109375 C 1.59375 -24.015625 2.921875 -23.65625 3.640625 -23.1875 L 3.640625 -3.53125 Z M 3.328125 0 "/></g></g></g><g fill="#000000" fill-opacity="1"><g transform="translate(267.474578, 199.327682)"><g><path d="M 7.6875 0.8125 L 8.75 0.8125 L 14.953125 -0.921875 L 14.953125 -1.125 L 8.75 -0.921875 L 8.75 -23.609375 L 14.6875 -23.609375 L 14.953125 -24.828125 L 8.75 -24.828125 L 8.75 -31.4375 L 9.171875 -33.53125 L -0.25 -29.1875 L -0.25 -28.875 C 3.078125 -29.84375 4.046875 -30.0625 4.046875 -27.90625 L 4.046875 -3.53125 L 3.890625 -0.453125 Z M 7.6875 0.8125 "/></g></g></g><g fill="#000000" fill-opacity="1"><g transform="translate(282.682103, 199.327682)"><g><path d="M 5.734375 -30.421875 C 7.375 -30.421875 8.65625 -31.6875 8.65625 -33.390625 C 8.65625 -35.015625 7.375 -36.296875 5.734375 -36.296875 C 4.046875 -36.296875 2.765625 -35.015625 2.765625 -33.390625 C 2.765625 -31.6875 4.046875 -30.421875 5.734375 -30.421875 Z M 8.390625 -2.65625 L 8.390625 -25.09375 L 0.5625 -24.328125 L 0.5625 -24.109375 C 1.640625 -24.015625 2.96875 -23.65625 3.6875 -23.1875 L 3.6875 0.8125 C 3.6875 6.25 2.09375 8.953125 -1.53125 10.34375 L -1.4375 10.453125 C 2.71875 9.828125 6.703125 6.96875 8.8125 3.578125 C 8.609375 2.09375 8.390625 0.25 8.390625 -2.65625 Z M 8.390625 -2.65625 "/></g></g></g><g fill="#000000" fill-opacity="1"><g transform="translate(293.025185, 199.327682)"><g><path d="M 25.703125 -5.125 C 24.109375 -2.921875 19.921875 -1.890625 17.203125 -1.890625 C 11.0625 -1.890625 7.0625 -7.21875 7.015625 -14.234375 L 21.65625 -14.234375 C 28.0625 -14.234375 26.875 -25.140625 16.234375 -25.140625 C 8.8125 -25.140625 2.046875 -20.078125 2.046875 -11.828125 C 2.046875 -4.09375 7.890625 0.359375 15 0.359375 C 20.28125 0.359375 24.421875 -2.046875 25.953125 -4.921875 Z M 14.390625 -24.21875 C 21.046875 -24.21875 22.734375 -15.265625 19.609375 -15.203125 L 7.015625 -15.046875 C 7.265625 -20.84375 10.234375 -24.21875 14.390625 -24.21875 Z M 14.390625 -24.21875 "/></g></g></g><path fill="#ffed00" d="M 160.269531 214.84375 L 316.71875 214.84375 C 318.570312 214.84375 320.347656 215.582031 321.660156 216.890625 C 322.96875 218.203125 323.707031 219.980469 323.707031 221.832031 L 323.707031 235.808594 C 323.707031 237.660156 322.96875 239.4375 321.660156 240.746094 C 320.347656 242.058594 318.570312 242.792969 316.71875 242.792969 L 160.269531 242.792969 C 156.414062 242.792969 153.285156 239.664062 153.285156 235.808594 L 153.285156 221.832031 C 153.285156 217.972656 156.414062 214.84375 160.269531 214.84375 Z M 160.269531 214.84375 " fill-opacity="1" fill-rule="nonzero"/><g fill="#000000" fill-opacity="1"><g transform="translate(164.191211, 231.65969)"><g><path d="M 0.8125 -11.25 L 4.078125 -11.25 C 5.640625 -11.25 6.972656 -10.710938 8.078125 -9.640625 C 9.191406 -8.578125 9.75 -7.242188 9.75 -5.640625 C 9.75 -4.015625 9.195312 -2.664062 8.09375 -1.59375 C 6.988281 -0.53125 5.648438 0 4.078125 0 L 0.8125 0 Z M 3.390625 -2.296875 L 3.78125 -2.296875 C 4.71875 -2.296875 5.484375 -2.609375 6.078125 -3.234375 C 6.671875 -3.867188 6.972656 -4.664062 6.984375 -5.625 C 6.984375 -6.570312 6.6875 -7.363281 6.09375 -8 C 5.5 -8.644531 4.726562 -8.96875 3.78125 -8.96875 L 3.390625 -8.96875 Z M 3.390625 -2.296875 "/></g></g></g><g fill="#000000" fill-opacity="1"><g transform="translate(175.234823, 231.65969)"><g><path d="M 1.046875 -10.890625 C 1.328125 -11.179688 1.660156 -11.328125 2.046875 -11.328125 C 2.441406 -11.328125 2.78125 -11.179688 3.0625 -10.890625 C 3.34375 -10.609375 3.484375 -10.269531 3.484375 -9.875 C 3.484375 -9.488281 3.34375 -9.15625 3.0625 -8.875 C 2.78125 -8.59375 2.441406 -8.453125 2.046875 -8.453125 C 1.660156 -8.453125 1.328125 -8.59375 1.046875 -8.875 C 0.765625 -9.15625 0.625 -9.488281 0.625 -9.875 C 0.625 -10.269531 0.765625 -10.609375 1.046875 -10.890625 Z M 0.8125 -7 L 0.8125 0 L 3.234375 0 L 3.234375 -7 Z M 0.8125 -7 "/></g></g></g><g fill="#000000" fill-opacity="1"><g transform="translate(180.333966, 231.65969)"><g><path d="M 3.859375 -7.203125 C 4.253906 -7.203125 4.648438 -7.15625 5.046875 -7.0625 C 5.441406 -6.96875 5.734375 -6.878906 5.921875 -6.796875 L 6.203125 -6.65625 L 5.421875 -5.078125 C 4.867188 -5.367188 4.347656 -5.515625 3.859375 -5.515625 C 3.585938 -5.515625 3.394531 -5.484375 3.28125 -5.421875 C 3.164062 -5.359375 3.109375 -5.25 3.109375 -5.09375 C 3.109375 -5.050781 3.113281 -5.007812 3.125 -4.96875 C 3.132812 -4.9375 3.148438 -4.90625 3.171875 -4.875 C 3.203125 -4.84375 3.226562 -4.816406 3.25 -4.796875 C 3.269531 -4.773438 3.304688 -4.75 3.359375 -4.71875 C 3.421875 -4.6875 3.46875 -4.664062 3.5 -4.65625 C 3.53125 -4.644531 3.582031 -4.625 3.65625 -4.59375 C 3.726562 -4.570312 3.78125 -4.550781 3.8125 -4.53125 C 3.851562 -4.519531 3.914062 -4.5 4 -4.46875 C 4.09375 -4.445312 4.160156 -4.429688 4.203125 -4.421875 C 4.484375 -4.335938 4.726562 -4.242188 4.9375 -4.140625 C 5.144531 -4.046875 5.363281 -3.910156 5.59375 -3.734375 C 5.832031 -3.566406 6.015625 -3.347656 6.140625 -3.078125 C 6.265625 -2.816406 6.328125 -2.519531 6.328125 -2.1875 C 6.328125 -0.59375 5.222656 0.203125 3.015625 0.203125 C 2.515625 0.203125 2.035156 0.125 1.578125 -0.03125 C 1.128906 -0.1875 0.804688 -0.335938 0.609375 -0.484375 L 0.3125 -0.734375 L 1.296875 -2.390625 C 1.367188 -2.328125 1.460938 -2.25 1.578125 -2.15625 C 1.703125 -2.070312 1.914062 -1.953125 2.21875 -1.796875 C 2.53125 -1.648438 2.800781 -1.578125 3.03125 -1.578125 C 3.53125 -1.578125 3.78125 -1.75 3.78125 -2.09375 C 3.78125 -2.238281 3.710938 -2.351562 3.578125 -2.4375 C 3.453125 -2.53125 3.238281 -2.628906 2.9375 -2.734375 C 2.632812 -2.847656 2.394531 -2.953125 2.21875 -3.046875 C 1.78125 -3.273438 1.4375 -3.53125 1.1875 -3.8125 C 0.9375 -4.101562 0.8125 -4.484375 0.8125 -4.953125 C 0.8125 -5.660156 1.082031 -6.210938 1.625 -6.609375 C 2.175781 -7.003906 2.921875 -7.203125 3.859375 -7.203125 Z M 3.859375 -7.203125 "/></g></g></g><g fill="#000000" fill-opacity="1"><g transform="translate(188.023584, 231.65969)"><g><path d="M 4.546875 -5.21875 C 4.085938 -5.21875 3.691406 -5.050781 3.359375 -4.71875 C 3.035156 -4.382812 2.875 -3.976562 2.875 -3.5 C 2.875 -3.019531 3.035156 -2.609375 3.359375 -2.265625 C 3.691406 -1.929688 4.085938 -1.765625 4.546875 -1.765625 C 4.765625 -1.765625 4.96875 -1.789062 5.15625 -1.84375 C 5.351562 -1.90625 5.5 -1.960938 5.59375 -2.015625 L 5.71875 -2.09375 L 6.53125 -0.421875 C 6.46875 -0.378906 6.378906 -0.320312 6.265625 -0.25 C 6.148438 -0.1875 5.890625 -0.0976562 5.484375 0.015625 C 5.085938 0.140625 4.65625 0.203125 4.1875 0.203125 C 3.15625 0.203125 2.25 -0.15625 1.46875 -0.875 C 0.695312 -1.601562 0.3125 -2.472656 0.3125 -3.484375 C 0.3125 -4.492188 0.695312 -5.363281 1.46875 -6.09375 C 2.25 -6.832031 3.15625 -7.203125 4.1875 -7.203125 C 4.65625 -7.203125 5.082031 -7.144531 5.46875 -7.03125 C 5.863281 -6.925781 6.140625 -6.820312 6.296875 -6.71875 L 6.53125 -6.546875 L 5.71875 -4.890625 C 5.414062 -5.109375 5.023438 -5.21875 4.546875 -5.21875 Z M 4.546875 -5.21875 "/></g></g></g><g fill="#000000" fill-opacity="1"><g transform="translate(195.699577, 231.65969)"><g><path d="M 1.46875 -0.828125 C 0.695312 -1.523438 0.3125 -2.410156 0.3125 -3.484375 C 0.3125 -4.566406 0.710938 -5.457031 1.515625 -6.15625 C 2.328125 -6.851562 3.332031 -7.203125 4.53125 -7.203125 C 5.695312 -7.203125 6.679688 -6.851562 7.484375 -6.15625 C 8.296875 -5.457031 8.703125 -4.566406 8.703125 -3.484375 C 8.703125 -2.410156 8.304688 -1.523438 7.515625 -0.828125 C 6.734375 -0.140625 5.738281 0.203125 4.53125 0.203125 C 3.269531 0.203125 2.25 -0.140625 1.46875 -0.828125 Z M 3.34375 -4.671875 C 3.03125 -4.367188 2.875 -3.972656 2.875 -3.484375 C 2.875 -3.003906 3.023438 -2.613281 3.328125 -2.3125 C 3.628906 -2.007812 4.023438 -1.859375 4.515625 -1.859375 C 4.984375 -1.859375 5.367188 -2.007812 5.671875 -2.3125 C 5.984375 -2.625 6.140625 -3.015625 6.140625 -3.484375 C 6.140625 -3.972656 5.984375 -4.367188 5.671875 -4.671875 C 5.359375 -4.984375 4.972656 -5.140625 4.515625 -5.140625 C 4.046875 -5.140625 3.65625 -4.984375 3.34375 -4.671875 Z M 3.34375 -4.671875 "/></g></g></g><g fill="#000000" fill-opacity="1"><g transform="translate(205.693356, 231.65969)"><g><path d="M 3.09375 -7 L 3.09375 -3.671875 C 3.09375 -2.972656 3.195312 -2.476562 3.40625 -2.1875 C 3.613281 -1.90625 3.96875 -1.765625 4.46875 -1.765625 C 4.96875 -1.765625 5.320312 -1.90625 5.53125 -2.1875 C 5.75 -2.476562 5.859375 -2.972656 5.859375 -3.671875 L 5.859375 -7 L 8.265625 -7 L 8.265625 -3.078125 C 8.265625 -1.921875 7.960938 -1.082031 7.359375 -0.5625 C 6.753906 -0.0507812 5.789062 0.203125 4.46875 0.203125 C 3.15625 0.203125 2.195312 -0.0507812 1.59375 -0.5625 C 0.988281 -1.082031 0.6875 -1.921875 0.6875 -3.078125 L 0.6875 -7 Z M 3.09375 -7 "/></g></g></g><g fill="#000000" fill-opacity="1"><g transform="translate(215.618969, 231.65969)"><g><path d="M 0.8125 0 L 0.8125 -7 L 3.234375 -7 L 3.234375 -6.265625 L 3.265625 -6.265625 C 3.890625 -6.890625 4.554688 -7.203125 5.265625 -7.203125 C 5.609375 -7.203125 5.953125 -7.15625 6.296875 -7.0625 C 6.640625 -6.96875 6.96875 -6.828125 7.28125 -6.640625 C 7.59375 -6.453125 7.84375 -6.179688 8.03125 -5.828125 C 8.226562 -5.484375 8.328125 -5.078125 8.328125 -4.609375 L 8.328125 0 L 5.921875 0 L 5.921875 -3.953125 C 5.921875 -4.316406 5.800781 -4.632812 5.5625 -4.90625 C 5.332031 -5.175781 5.035156 -5.3125 4.671875 -5.3125 C 4.304688 -5.3125 3.972656 -5.171875 3.671875 -4.890625 C 3.378906 -4.609375 3.234375 -4.296875 3.234375 -3.953125 L 3.234375 0 Z M 0.8125 0 "/></g></g></g><g fill="#000000" fill-opacity="1"><g transform="translate(225.612748, 231.65969)"><g><path d="M 1.234375 -7 L 1.234375 -9.609375 L 3.640625 -9.609375 L 3.640625 -7 L 5.109375 -7 L 5.109375 -5.15625 L 3.640625 -5.15625 L 3.640625 -2.9375 C 3.640625 -2.289062 3.820312 -1.96875 4.1875 -1.96875 C 4.28125 -1.96875 4.375 -1.984375 4.46875 -2.015625 C 4.570312 -2.054688 4.648438 -2.09375 4.703125 -2.125 L 4.78125 -2.1875 L 5.390625 -0.234375 C 4.867188 0.0546875 4.273438 0.203125 3.609375 0.203125 C 3.160156 0.203125 2.769531 0.125 2.4375 -0.03125 C 2.113281 -0.1875 1.867188 -0.398438 1.703125 -0.671875 C 1.535156 -0.941406 1.414062 -1.222656 1.34375 -1.515625 C 1.269531 -1.816406 1.234375 -2.132812 1.234375 -2.46875 L 1.234375 -5.15625 L 0.21875 -5.15625 L 0.21875 -7 Z M 1.234375 -7 "/></g></g></g><g fill="#000000" fill-opacity="1"><g transform="translate(231.979865, 231.65969)"><g/></g></g><g fill="#000000" fill-opacity="1"><g transform="translate(236.683611, 231.65969)"><g><path d="M 4.96875 -11.453125 C 5.570312 -11.453125 6.164062 -11.363281 6.75 -11.1875 C 7.332031 -11.007812 7.765625 -10.835938 8.046875 -10.671875 L 8.453125 -10.390625 L 7.421875 -8.34375 C 7.335938 -8.40625 7.222656 -8.476562 7.078125 -8.5625 C 6.929688 -8.644531 6.65625 -8.757812 6.25 -8.90625 C 5.851562 -9.050781 5.484375 -9.125 5.140625 -9.125 C 4.710938 -9.125 4.382812 -9.03125 4.15625 -8.84375 C 3.925781 -8.664062 3.8125 -8.421875 3.8125 -8.109375 C 3.8125 -7.960938 3.863281 -7.820312 3.96875 -7.6875 C 4.082031 -7.550781 4.269531 -7.40625 4.53125 -7.25 C 4.789062 -7.101562 5.019531 -6.984375 5.21875 -6.890625 C 5.425781 -6.804688 5.738281 -6.675781 6.15625 -6.5 C 6.882812 -6.1875 7.503906 -5.765625 8.015625 -5.234375 C 8.523438 -4.703125 8.78125 -4.097656 8.78125 -3.421875 C 8.78125 -2.773438 8.664062 -2.210938 8.4375 -1.734375 C 8.207031 -1.253906 7.890625 -0.875 7.484375 -0.59375 C 7.078125 -0.320312 6.628906 -0.125 6.140625 0 C 5.648438 0.132812 5.117188 0.203125 4.546875 0.203125 C 4.054688 0.203125 3.570312 0.148438 3.09375 0.046875 C 2.625 -0.046875 2.226562 -0.164062 1.90625 -0.3125 C 1.59375 -0.46875 1.304688 -0.617188 1.046875 -0.765625 C 0.796875 -0.910156 0.609375 -1.03125 0.484375 -1.125 L 0.3125 -1.28125 L 1.59375 -3.4375 C 1.707031 -3.34375 1.859375 -3.222656 2.046875 -3.078125 C 2.234375 -2.941406 2.570312 -2.753906 3.0625 -2.515625 C 3.550781 -2.285156 3.976562 -2.171875 4.34375 -2.171875 C 5.425781 -2.171875 5.96875 -2.539062 5.96875 -3.28125 C 5.96875 -3.425781 5.929688 -3.566406 5.859375 -3.703125 C 5.785156 -3.835938 5.648438 -3.96875 5.453125 -4.09375 C 5.253906 -4.226562 5.078125 -4.332031 4.921875 -4.40625 C 4.773438 -4.488281 4.53125 -4.609375 4.1875 -4.765625 C 3.851562 -4.921875 3.601562 -5.039062 3.4375 -5.125 C 2.757812 -5.46875 2.234375 -5.890625 1.859375 -6.390625 C 1.484375 -6.890625 1.296875 -7.429688 1.296875 -8.015625 C 1.296875 -9.023438 1.664062 -9.847656 2.40625 -10.484375 C 3.15625 -11.128906 4.007812 -11.453125 4.96875 -11.453125 Z M 4.96875 -11.453125 "/></g></g></g><g fill="#000000" fill-opacity="1"><g transform="translate(246.827369, 231.65969)"><g><path d="M 0.8125 0 L 0.8125 -11.734375 L 3.234375 -11.734375 L 3.234375 -6.265625 L 3.265625 -6.265625 C 3.890625 -6.890625 4.554688 -7.203125 5.265625 -7.203125 C 5.609375 -7.203125 5.953125 -7.15625 6.296875 -7.0625 C 6.640625 -6.96875 6.96875 -6.828125 7.28125 -6.640625 C 7.59375 -6.453125 7.84375 -6.179688 8.03125 -5.828125 C 8.226562 -5.484375 8.328125 -5.078125 8.328125 -4.609375 L 8.328125 0 L 5.921875 0 L 5.921875 -3.953125 C 5.921875 -4.316406 5.800781 -4.632812 5.5625 -4.90625 C 5.332031 -5.175781 5.035156 -5.3125 4.671875 -5.3125 C 4.304688 -5.3125 3.972656 -5.171875 3.671875 -4.890625 C 3.378906 -4.609375 3.234375 -4.296875 3.234375 -3.953125 L 3.234375 0 Z M 0.8125 0 "/></g></g></g><g fill="#000000" fill-opacity="1"><g transform="translate(256.821149, 231.65969)"><g><path d="M 1.46875 -0.828125 C 0.695312 -1.523438 0.3125 -2.410156 0.3125 -3.484375 C 0.3125 -4.566406 0.710938 -5.457031 1.515625 -6.15625 C 2.328125 -6.851562 3.332031 -7.203125 4.53125 -7.203125 C 5.695312 -7.203125 6.679688 -6.851562 7.484375 -6.15625 C 8.296875 -5.457031 8.703125 -4.566406 8.703125 -3.484375 C 8.703125 -2.410156 8.304688 -1.523438 7.515625 -0.828125 C 6.734375 -0.140625 5.738281 0.203125 4.53125 0.203125 C 3.269531 0.203125 2.25 -0.140625 1.46875 -0.828125 Z M 3.34375 -4.671875 C 3.03125 -4.367188 2.875 -3.972656 2.875 -3.484375 C 2.875 -3.003906 3.023438 -2.613281 3.328125 -2.3125 C 3.628906 -2.007812 4.023438 -1.859375 4.515625 -1.859375 C 4.984375 -1.859375 5.367188 -2.007812 5.671875 -2.3125 C 5.984375 -2.625 6.140625 -3.015625 6.140625 -3.484375 C 6.140625 -3.972656 5.984375 -4.367188 5.671875 -4.671875 C 5.359375 -4.984375 4.972656 -5.140625 4.515625 -5.140625 C 4.046875 -5.140625 3.65625 -4.984375 3.34375 -4.671875 Z M 3.34375 -4.671875 "/></g></g></g><g fill="#000000" fill-opacity="1"><g transform="translate(266.814928, 231.65969)"><g><path d="M 8.015625 -6.125 C 8.671875 -5.414062 9 -4.539062 9 -3.5 C 9 -2.46875 8.671875 -1.59375 8.015625 -0.875 C 7.359375 -0.15625 6.53125 0.203125 5.53125 0.203125 C 4.601562 0.203125 3.835938 -0.0859375 3.234375 -0.671875 L 3.234375 3.546875 L 0.8125 3.546875 L 0.8125 -7 L 3.203125 -7 L 3.203125 -6.203125 L 3.234375 -6.203125 C 3.835938 -6.867188 4.601562 -7.203125 5.53125 -7.203125 C 6.53125 -7.203125 7.359375 -6.84375 8.015625 -6.125 Z M 5.96875 -2.3125 C 6.28125 -2.625 6.4375 -3.019531 6.4375 -3.5 C 6.4375 -3.988281 6.285156 -4.382812 5.984375 -4.6875 C 5.679688 -4.988281 5.285156 -5.140625 4.796875 -5.140625 C 4.328125 -5.140625 3.9375 -4.984375 3.625 -4.671875 C 3.320312 -4.367188 3.171875 -3.976562 3.171875 -3.5 C 3.171875 -3.019531 3.328125 -2.625 3.640625 -2.3125 C 3.960938 -2.007812 4.347656 -1.859375 4.796875 -1.859375 C 5.265625 -1.859375 5.65625 -2.007812 5.96875 -2.3125 Z M 5.96875 -2.3125 "/></g></g></g><g fill="#000000" fill-opacity="1"><g transform="translate(277.108664, 231.65969)"><g><path d="M 8.015625 -6.125 C 8.671875 -5.414062 9 -4.539062 9 -3.5 C 9 -2.46875 8.671875 -1.59375 8.015625 -0.875 C 7.359375 -0.15625 6.53125 0.203125 5.53125 0.203125 C 4.601562 0.203125 3.835938 -0.0859375 3.234375 -0.671875 L 3.234375 3.546875 L 0.8125 3.546875 L 0.8125 -7 L 3.203125 -7 L 3.203125 -6.203125 L 3.234375 -6.203125 C 3.835938 -6.867188 4.601562 -7.203125 5.53125 -7.203125 C 6.53125 -7.203125 7.359375 -6.84375 8.015625 -6.125 Z M 5.96875 -2.3125 C 6.28125 -2.625 6.4375 -3.019531 6.4375 -3.5 C 6.4375 -3.988281 6.285156 -4.382812 5.984375 -4.6875 C 5.679688 -4.988281 5.285156 -5.140625 4.796875 -5.140625 C 4.328125 -5.140625 3.9375 -4.984375 3.625 -4.671875 C 3.320312 -4.367188 3.171875 -3.976562 3.171875 -3.5 C 3.171875 -3.019531 3.328125 -2.625 3.640625 -2.3125 C 3.960938 -2.007812 4.347656 -1.859375 4.796875 -1.859375 C 5.265625 -1.859375 5.65625 -2.007812 5.96875 -2.3125 Z M 5.96875 -2.3125 "/></g></g></g><g fill="#000000" fill-opacity="1"><g transform="translate(287.402401, 231.65969)"><g><path d="M 1.046875 -10.890625 C 1.328125 -11.179688 1.660156 -11.328125 2.046875 -11.328125 C 2.441406 -11.328125 2.78125 -11.179688 3.0625 -10.890625 C 3.34375 -10.609375 3.484375 -10.269531 3.484375 -9.875 C 3.484375 -9.488281 3.34375 -9.15625 3.0625 -8.875 C 2.78125 -8.59375 2.441406 -8.453125 2.046875 -8.453125 C 1.660156 -8.453125 1.328125 -8.59375 1.046875 -8.875 C 0.765625 -9.15625 0.625 -9.488281 0.625 -9.875 C 0.625 -10.269531 0.765625 -10.609375 1.046875 -10.890625 Z M 0.8125 -7 L 0.8125 0 L 3.234375 0 L 3.234375 -7 Z M 0.8125 -7 "/></g></g></g><g fill="#000000" fill-opacity="1"><g transform="translate(292.501541, 231.65969)"><g><path d="M 0.8125 0 L 0.8125 -7 L 3.234375 -7 L 3.234375 -6.265625 L 3.265625 -6.265625 C 3.890625 -6.890625 4.554688 -7.203125 5.265625 -7.203125 C 5.609375 -7.203125 5.953125 -7.15625 6.296875 -7.0625 C 6.640625 -6.96875 6.96875 -6.828125 7.28125 -6.640625 C 7.59375 -6.453125 7.84375 -6.179688 8.03125 -5.828125 C 8.226562 -5.484375 8.328125 -5.078125 8.328125 -4.609375 L 8.328125 0 L 5.921875 0 L 5.921875 -3.953125 C 5.921875 -4.316406 5.800781 -4.632812 5.5625 -4.90625 C 5.332031 -5.175781 5.035156 -5.3125 4.671875 -5.3125 C 4.304688 -5.3125 3.972656 -5.171875 3.671875 -4.890625 C 3.378906 -4.609375 3.234375 -4.296875 3.234375 -3.953125 L 3.234375 0 Z M 0.8125 0 "/></g></g></g><g fill="#000000" fill-opacity="1"><g transform="translate(302.495321, 231.65969)"><g><path d="M 0.5 1.71875 L 2.484375 0.75 C 2.847656 1.351562 3.476562 1.65625 4.375 1.65625 C 4.789062 1.65625 5.175781 1.519531 5.53125 1.25 C 5.894531 0.976562 6.078125 0.566406 6.078125 0.015625 L 6.078125 -0.5 C 5.648438 -0.03125 4.890625 0.203125 3.796875 0.203125 C 2.785156 0.203125 1.953125 -0.148438 1.296875 -0.859375 C 0.640625 -1.578125 0.3125 -2.453125 0.3125 -3.484375 C 0.3125 -4.523438 0.640625 -5.40625 1.296875 -6.125 C 1.953125 -6.84375 2.785156 -7.203125 3.796875 -7.203125 C 4.691406 -7.203125 5.441406 -6.925781 6.046875 -6.375 L 6.078125 -6.375 L 6.078125 -7 L 8.5 -7 L 8.5 0.1875 C 8.5 1.320312 8.117188 2.195312 7.359375 2.8125 C 6.609375 3.4375 5.613281 3.75 4.375 3.75 C 2.375 3.75 1.082031 3.070312 0.5 1.71875 Z M 3.34375 -4.671875 C 3.03125 -4.367188 2.875 -3.972656 2.875 -3.484375 C 2.875 -3.003906 3.023438 -2.613281 3.328125 -2.3125 C 3.628906 -2.007812 4.023438 -1.859375 4.515625 -1.859375 C 4.984375 -1.859375 5.367188 -2.007812 5.671875 -2.3125 C 5.984375 -2.625 6.140625 -3.015625 6.140625 -3.484375 C 6.140625 -3.972656 5.984375 -4.367188 5.671875 -4.671875 C 5.359375 -4.984375 4.972656 -5.140625 4.515625 -5.140625 C 4.046875 -5.140625 3.65625 -4.984375 3.34375 -4.671875 Z M 3.34375 -4.671875 "/></g></g></g></svg>