<svg xmlns="http://www.w3.org/2000/svg" xmlns:xlink="http://www.w3.org/1999/xlink" width="100" zoomAndPan="magnify" viewBox="0 0 75 30.000001" height="40" preserveAspectRatio="xMidYMid meet" version="1.0"><defs><g/><clipPath id="481c788b7e"><path d="M 10 0.9375 L 32.808594 0.9375 L 32.808594 27 L 10 27 Z M 10 0.9375 " clip-rule="nonzero"/></clipPath><clipPath id="8a9ab77ed2"><path d="M 5.226562 16 L 16 16 L 16 18 L 5.226562 18 Z M 5.226562 16 " clip-rule="nonzero"/></clipPath><clipPath id="57930a2982"><path d="M 24.210938 11.332031 L 39.328125 11.332031 L 39.328125 28.097656 L 24.210938 28.097656 Z M 24.210938 11.332031 " clip-rule="nonzero"/></clipPath><clipPath id="f1fa5d2c56"><path d="M 26.300781 11.332031 L 39.328125 11.332031 L 37.234375 28.09375 L 24.210938 28.09375 Z M 26.300781 11.332031 " clip-rule="nonzero"/></clipPath></defs><g clip-path="url(#481c788b7e)"><path fill="#000000" d="M 29.445312 6.851562 L 29.4375 6.84375 C 29.429688 6.808594 29.417969 6.777344 29.402344 6.742188 C 29.390625 6.707031 29.375 6.675781 29.355469 6.648438 C 29.34375 6.621094 29.324219 6.601562 29.296875 6.574219 C 29.277344 6.546875 29.25 6.519531 29.214844 6.492188 C 29.195312 6.480469 29.167969 6.464844 29.140625 6.453125 C 29.101562 6.433594 29.058594 6.414062 29.019531 6.40625 C 29.007812 6.398438 28.992188 6.390625 28.980469 6.386719 C 28.964844 6.386719 28.945312 6.390625 28.933594 6.386719 C 28.910156 6.386719 28.898438 6.378906 28.878906 6.378906 L 25.046875 6.378906 L 25.046875 4.5625 C 25.046875 2.582031 23.429688 0.964844 21.453125 0.964844 C 19.464844 0.964844 17.855469 2.582031 17.855469 4.5625 L 17.855469 6.378906 L 14.019531 6.378906 C 13.742188 6.378906 13.5 6.582031 13.453125 6.851562 L 12.847656 10.324219 L 14.011719 10.324219 L 14.496094 7.523438 L 17.855469 7.523438 L 17.855469 8.675781 C 17.855469 8.992188 18.113281 9.246094 18.429688 9.246094 C 18.746094 9.246094 19 8.992188 19 8.675781 L 19 6.964844 C 19 6.957031 19 6.957031 19 6.953125 C 19 6.945312 19 6.945312 19 6.9375 L 19 4.5625 C 19 3.214844 20.097656 2.109375 21.453125 2.109375 C 22.796875 2.109375 23.902344 3.214844 23.902344 4.5625 L 23.902344 6.378906 L 20.859375 6.378906 C 20.542969 6.378906 20.285156 6.636719 20.285156 6.953125 C 20.285156 7.269531 20.542969 7.523438 20.859375 7.523438 L 24.46875 7.523438 C 24.472656 7.523438 24.472656 7.523438 24.472656 7.523438 L 28.199219 7.523438 L 25.039062 25.617188 L 11.34375 25.617188 L 11.835938 22.816406 L 10.671875 22.816406 L 10.097656 26.085938 C 10.070312 26.257812 10.117188 26.425781 10.226562 26.558594 C 10.335938 26.6875 10.496094 26.761719 10.664062 26.761719 L 32.230469 26.761719 C 32.398438 26.761719 32.5625 26.6875 32.667969 26.558594 C 32.777344 26.425781 32.824219 26.257812 32.796875 26.085938 Z M 26.203125 25.621094 L 28.878906 10.292969 L 31.550781 25.621094 Z M 26.203125 25.621094 " fill-opacity="1" fill-rule="nonzero"/></g><path fill="#ffae00" d="M 15.222656 21.675781 L 8.773438 21.675781 C 8.457031 21.675781 8.199219 21.933594 8.199219 22.25 C 8.199219 22.566406 8.457031 22.820312 8.773438 22.820312 L 15.222656 22.820312 C 15.539062 22.820312 15.796875 22.566406 15.796875 22.25 C 15.796875 21.933594 15.539062 21.675781 15.222656 21.675781 Z M 15.222656 21.675781 " fill-opacity="1" fill-rule="nonzero"/><path fill="#ffae00" d="M 17.335938 10.332031 L 11.054688 10.332031 C 10.738281 10.332031 10.484375 10.585938 10.484375 10.902344 C 10.484375 11.21875 10.738281 11.476562 11.054688 11.476562 L 17.335938 11.476562 C 17.652344 11.476562 17.910156 11.21875 17.910156 10.902344 C 17.910156 10.585938 17.652344 10.332031 17.335938 10.332031 Z M 17.335938 10.332031 " fill-opacity="1" fill-rule="nonzero"/><path fill="#ffae00" d="M 8.773438 14.3125 L 16.113281 14.3125 C 16.429688 14.3125 16.683594 14.054688 16.683594 13.738281 C 16.683594 13.421875 16.429688 13.167969 16.113281 13.167969 L 8.773438 13.167969 C 8.457031 13.167969 8.199219 13.421875 8.199219 13.738281 C 8.199219 14.054688 8.457031 14.3125 8.773438 14.3125 Z M 8.773438 14.3125 " fill-opacity="1" fill-rule="nonzero"/><g clip-path="url(#8a9ab77ed2)"><path fill="#ffae00" d="M 15.796875 16.574219 C 15.796875 16.257812 15.539062 16 15.222656 16 L 6.050781 16 C 5.734375 16 5.480469 16.257812 5.480469 16.574219 C 5.480469 16.890625 5.734375 17.144531 6.050781 17.144531 L 15.222656 17.144531 C 15.539062 17.144531 15.796875 16.890625 15.796875 16.574219 Z M 15.796875 16.574219 " fill-opacity="1" fill-rule="nonzero"/></g><path fill="#ffae00" d="M 16.851562 18.835938 L 9.808594 18.835938 C 9.492188 18.835938 9.238281 19.089844 9.238281 19.40625 C 9.238281 19.722656 9.492188 19.980469 9.808594 19.980469 L 16.851562 19.980469 C 17.167969 19.980469 17.425781 19.722656 17.425781 19.40625 C 17.425781 19.089844 17.167969 18.835938 16.851562 18.835938 Z M 16.851562 18.835938 " fill-opacity="1" fill-rule="nonzero"/><g clip-path="url(#57930a2982)"><g clip-path="url(#f1fa5d2c56)"><path fill="#ffffff" d="M 24.210938 11.332031 L 39.328125 11.332031 L 39.328125 28.097656 L 24.210938 28.097656 Z M 24.210938 11.332031 " fill-opacity="1" fill-rule="nonzero"/></g></g><g fill="#ffae00" fill-opacity="1"><g transform="translate(19.14603, 22.853514)"><g><path d="M 0.140625 0 L 0.75 -3.1875 L 1.765625 -3.1875 C 2.097656 -3.1875 2.382812 -3.128906 2.625 -3.015625 C 2.875 -2.898438 3.066406 -2.734375 3.203125 -2.515625 C 3.335938 -2.296875 3.40625 -2.050781 3.40625 -1.78125 C 3.40625 -1.457031 3.328125 -1.160156 3.171875 -0.890625 C 3.023438 -0.617188 2.804688 -0.398438 2.515625 -0.234375 C 2.222656 -0.078125 1.867188 0 1.453125 0 Z M 1.453125 -0.703125 C 1.710938 -0.703125 1.925781 -0.75 2.09375 -0.84375 C 2.269531 -0.945312 2.394531 -1.078125 2.46875 -1.234375 C 2.550781 -1.390625 2.59375 -1.554688 2.59375 -1.734375 C 2.59375 -1.960938 2.515625 -2.144531 2.359375 -2.28125 C 2.203125 -2.425781 1.984375 -2.5 1.703125 -2.5 L 1.421875 -2.5 L 1.078125 -0.703125 Z M 1.453125 -0.703125 "/></g></g></g><g fill="#ffae00" fill-opacity="1"><g transform="translate(22.504341, 22.853514)"><g><path d="M 0.96875 0 L 0.171875 0 L 0.78125 -3.1875 L 1.578125 -3.1875 Z M 0.96875 0 "/></g></g></g><g fill="#ffae00" fill-opacity="1"><g transform="translate(23.953353, 22.853514)"><g><path d="M 1.359375 0.0625 C 1.003906 0.0625 0.710938 -0.0234375 0.484375 -0.203125 C 0.253906 -0.390625 0.140625 -0.671875 0.140625 -1.046875 L 0.921875 -1.046875 C 0.921875 -0.890625 0.960938 -0.769531 1.046875 -0.6875 C 1.140625 -0.613281 1.253906 -0.578125 1.390625 -0.578125 C 1.523438 -0.578125 1.628906 -0.601562 1.703125 -0.65625 C 1.773438 -0.71875 1.8125 -0.800781 1.8125 -0.90625 C 1.8125 -0.988281 1.769531 -1.054688 1.6875 -1.109375 C 1.613281 -1.171875 1.488281 -1.238281 1.3125 -1.3125 C 1.132812 -1.382812 0.988281 -1.457031 0.875 -1.53125 C 0.769531 -1.601562 0.675781 -1.695312 0.59375 -1.8125 C 0.507812 -1.925781 0.46875 -2.070312 0.46875 -2.25 C 0.46875 -2.425781 0.507812 -2.585938 0.59375 -2.734375 C 0.6875 -2.890625 0.820312 -3.015625 1 -3.109375 C 1.1875 -3.203125 1.410156 -3.25 1.671875 -3.25 C 2.023438 -3.25 2.300781 -3.15625 2.5 -2.96875 C 2.707031 -2.789062 2.8125 -2.539062 2.8125 -2.21875 L 2.03125 -2.21875 C 2.03125 -2.34375 1.992188 -2.4375 1.921875 -2.5 C 1.859375 -2.570312 1.765625 -2.609375 1.640625 -2.609375 C 1.515625 -2.609375 1.421875 -2.578125 1.359375 -2.515625 C 1.296875 -2.460938 1.265625 -2.390625 1.265625 -2.296875 C 1.265625 -2.210938 1.300781 -2.140625 1.375 -2.078125 C 1.457031 -2.023438 1.585938 -1.957031 1.765625 -1.875 C 1.941406 -1.800781 2.082031 -1.726562 2.1875 -1.65625 C 2.300781 -1.59375 2.398438 -1.503906 2.484375 -1.390625 C 2.566406 -1.273438 2.609375 -1.132812 2.609375 -0.96875 C 2.609375 -0.789062 2.5625 -0.625 2.46875 -0.46875 C 2.382812 -0.3125 2.25 -0.179688 2.0625 -0.078125 C 1.875 0.015625 1.640625 0.0625 1.359375 0.0625 Z M 1.359375 0.0625 "/></g></g></g><g fill="#ffae00" fill-opacity="1"><g transform="translate(26.646372, 22.853514)"><g><path d="M 1.8125 0.0625 C 1.53125 0.0625 1.269531 0 1.03125 -0.125 C 0.789062 -0.25 0.597656 -0.425781 0.453125 -0.65625 C 0.316406 -0.882812 0.25 -1.144531 0.25 -1.4375 C 0.25 -1.75 0.328125 -2.046875 0.484375 -2.328125 C 0.648438 -2.609375 0.875 -2.832031 1.15625 -3 C 1.445312 -3.164062 1.769531 -3.25 2.125 -3.25 C 2.394531 -3.25 2.640625 -3.195312 2.859375 -3.09375 C 3.078125 -2.988281 3.253906 -2.84375 3.390625 -2.65625 C 3.523438 -2.46875 3.613281 -2.25 3.65625 -2 L 2.84375 -2 C 2.78125 -2.164062 2.679688 -2.289062 2.546875 -2.375 C 2.421875 -2.46875 2.265625 -2.515625 2.078125 -2.515625 C 1.890625 -2.515625 1.71875 -2.46875 1.5625 -2.375 C 1.40625 -2.28125 1.28125 -2.148438 1.1875 -1.984375 C 1.101562 -1.828125 1.0625 -1.660156 1.0625 -1.484375 C 1.0625 -1.328125 1.09375 -1.1875 1.15625 -1.0625 C 1.226562 -0.945312 1.328125 -0.851562 1.453125 -0.78125 C 1.578125 -0.707031 1.722656 -0.671875 1.890625 -0.671875 C 2.085938 -0.671875 2.257812 -0.71875 2.40625 -0.8125 C 2.550781 -0.90625 2.664062 -1.035156 2.75 -1.203125 L 3.59375 -1.203125 C 3.445312 -0.816406 3.21875 -0.507812 2.90625 -0.28125 C 2.59375 -0.0507812 2.226562 0.0625 1.8125 0.0625 Z M 1.8125 0.0625 "/></g></g></g><g fill="#ffae00" fill-opacity="1"><g transform="translate(30.227968, 22.853514)"><g><path d="M 1.84375 0.0625 C 1.550781 0.0625 1.28125 0 1.03125 -0.125 C 0.789062 -0.25 0.597656 -0.425781 0.453125 -0.65625 C 0.316406 -0.882812 0.25 -1.144531 0.25 -1.4375 C 0.25 -1.757812 0.328125 -2.054688 0.484375 -2.328125 C 0.648438 -2.609375 0.875 -2.832031 1.15625 -3 C 1.445312 -3.164062 1.765625 -3.25 2.109375 -3.25 C 2.410156 -3.25 2.679688 -3.1875 2.921875 -3.0625 C 3.171875 -2.9375 3.363281 -2.757812 3.5 -2.53125 C 3.632812 -2.300781 3.703125 -2.039062 3.703125 -1.75 C 3.703125 -1.4375 3.617188 -1.140625 3.453125 -0.859375 C 3.296875 -0.578125 3.078125 -0.351562 2.796875 -0.1875 C 2.515625 -0.0195312 2.195312 0.0625 1.84375 0.0625 Z M 1.890625 -0.671875 C 2.078125 -0.671875 2.25 -0.71875 2.40625 -0.8125 C 2.5625 -0.914062 2.679688 -1.046875 2.765625 -1.203125 C 2.847656 -1.367188 2.890625 -1.539062 2.890625 -1.71875 C 2.890625 -1.863281 2.859375 -2 2.796875 -2.125 C 2.734375 -2.25 2.640625 -2.34375 2.515625 -2.40625 C 2.390625 -2.476562 2.242188 -2.515625 2.078125 -2.515625 C 1.878906 -2.515625 1.703125 -2.46875 1.546875 -2.375 C 1.398438 -2.28125 1.285156 -2.148438 1.203125 -1.984375 C 1.117188 -1.828125 1.078125 -1.660156 1.078125 -1.484375 C 1.078125 -1.328125 1.109375 -1.1875 1.171875 -1.0625 C 1.234375 -0.945312 1.328125 -0.851562 1.453125 -0.78125 C 1.578125 -0.707031 1.722656 -0.671875 1.890625 -0.671875 Z M 1.890625 -0.671875 "/></g></g></g><g fill="#ffae00" fill-opacity="1"><g transform="translate(33.887029, 22.853514)"><g><path d="M 1.578125 0.0625 C 1.328125 0.0625 1.109375 0.015625 0.921875 -0.078125 C 0.734375 -0.171875 0.585938 -0.300781 0.484375 -0.46875 C 0.378906 -0.644531 0.328125 -0.847656 0.328125 -1.078125 C 0.328125 -1.179688 0.335938 -1.289062 0.359375 -1.40625 L 0.703125 -3.1875 L 1.5 -3.1875 L 1.140625 -1.34375 C 1.128906 -1.289062 1.125 -1.234375 1.125 -1.171875 C 1.125 -1.015625 1.164062 -0.890625 1.25 -0.796875 C 1.34375 -0.710938 1.46875 -0.671875 1.625 -0.671875 C 1.78125 -0.671875 1.910156 -0.71875 2.015625 -0.8125 C 2.128906 -0.914062 2.207031 -1.0625 2.25 -1.25 L 2.625 -3.1875 L 3.421875 -3.1875 L 3.015625 -1.109375 C 2.953125 -0.753906 2.789062 -0.46875 2.53125 -0.25 C 2.28125 -0.0390625 1.960938 0.0625 1.578125 0.0625 Z M 1.578125 0.0625 "/></g></g></g><g fill="#ffae00" fill-opacity="1"><g transform="translate(37.094965, 22.853514)"><g><path d="M 2.625 -1.21875 L 3 -3.1875 L 3.765625 -3.1875 L 3.15625 0 L 2.609375 0 L 1.296875 -1.984375 L 0.921875 0 L 0.140625 0 L 0.75 -3.1875 L 1.3125 -3.1875 Z M 2.625 -1.21875 "/></g></g></g><g fill="#ffae00" fill-opacity="1"><g transform="translate(40.708457, 22.853514)"><g><path d="M 1.453125 0 L 0.65625 0 L 1.125 -2.46875 L 0.34375 -2.46875 L 0.484375 -3.1875 L 2.84375 -3.1875 L 2.703125 -2.46875 L 1.921875 -2.46875 Z M 1.453125 0 "/></g></g></g><g fill="#ffae00" fill-opacity="1"><g transform="translate(43.114398, 22.853514)"><g><path d="M 2.828125 -3.1875 L 2.703125 -2.515625 L 1.421875 -2.515625 L 1.328125 -1.96875 L 2.546875 -1.96875 L 2.421875 -1.296875 L 1.203125 -1.296875 L 1.078125 -0.6875 L 2.390625 -0.6875 L 2.265625 0 L 0.140625 0 L 0.75 -3.1875 Z M 2.828125 -3.1875 "/></g></g></g><g fill="#ffae00" fill-opacity="1"><g transform="translate(45.698054, 22.853514)"><g><path d="M 3 -2.21875 C 3 -2.007812 2.929688 -1.804688 2.796875 -1.609375 C 2.671875 -1.421875 2.472656 -1.28125 2.203125 -1.1875 L 2.921875 0 L 2.015625 0 L 1.34375 -1.078125 L 1.15625 -1.078125 L 0.953125 0 L 0.140625 0 L 0.75 -3.1875 L 1.859375 -3.1875 C 2.078125 -3.1875 2.269531 -3.144531 2.4375 -3.0625 C 2.613281 -2.988281 2.75 -2.878906 2.84375 -2.734375 C 2.945312 -2.585938 3 -2.414062 3 -2.21875 Z M 1.4375 -2.515625 L 1.28125 -1.75 L 1.671875 -1.75 C 1.828125 -1.75 1.945312 -1.785156 2.03125 -1.859375 C 2.125 -1.941406 2.171875 -2.046875 2.171875 -2.171875 C 2.171875 -2.273438 2.128906 -2.359375 2.046875 -2.421875 C 1.972656 -2.484375 1.875 -2.515625 1.75 -2.515625 Z M 1.4375 -2.515625 "/></g></g></g><g fill="#000000" fill-opacity="1"><g transform="translate(19.357906, 18.729266)"><g><path d="M 5.125 -2.375 L 5.875 -6.25 L 7.375 -6.25 L 6.1875 0 L 5.09375 0 L 2.546875 -3.875 L 1.796875 0 L 0.28125 0 L 1.484375 -6.25 L 2.5625 -6.25 Z M 5.125 -2.375 "/></g></g></g><g fill="#000000" fill-opacity="1"><g transform="translate(26.435972, 18.729266)"><g><path d="M 5.515625 -6.25 L 5.265625 -4.921875 L 2.796875 -4.921875 L 2.59375 -3.84375 L 4.96875 -3.84375 L 4.734375 -2.546875 L 2.34375 -2.546875 L 2.109375 -1.328125 L 4.671875 -1.328125 L 4.421875 0 L 0.28125 0 L 1.484375 -6.25 Z M 5.515625 -6.25 "/></g></g></g><g fill="#000000" fill-opacity="1"><g transform="translate(31.496807, 18.729266)"><g/></g></g><g fill="#000000" fill-opacity="1"><g transform="translate(33.942381, 18.729266)"><g><path d="M 1.28125 -6.25 L 5.578125 -6.25 L 5.390625 -5.3125 L 2.25 -1.390625 L 4.8125 -1.390625 L 4.5625 0 L -0.0625 0 L 0.109375 -0.921875 L 3.28125 -4.875 L 1.03125 -4.875 Z M 1.28125 -6.25 "/></g></g></g><g fill="#000000" fill-opacity="1"><g transform="translate(38.976435, 18.729266)"><g><path d="M 4.65625 -3.21875 C 4.882812 -3.101562 5.070312 -2.929688 5.21875 -2.703125 C 5.375 -2.484375 5.453125 -2.238281 5.453125 -1.96875 C 5.453125 -1.632812 5.367188 -1.316406 5.203125 -1.015625 C 5.035156 -0.722656 4.769531 -0.476562 4.40625 -0.28125 C 4.039062 -0.09375 3.570312 0 3 0 L 0.28125 0 L 1.484375 -6.25 L 3.65625 -6.25 C 4.070312 -6.25 4.429688 -6.179688 4.734375 -6.046875 C 5.035156 -5.910156 5.269531 -5.722656 5.4375 -5.484375 C 5.601562 -5.253906 5.6875 -4.992188 5.6875 -4.703125 C 5.6875 -4.359375 5.59375 -4.054688 5.40625 -3.796875 C 5.226562 -3.535156 4.976562 -3.34375 4.65625 -3.21875 Z M 3.234375 -3.71875 C 3.515625 -3.71875 3.726562 -3.78125 3.875 -3.90625 C 4.03125 -4.039062 4.109375 -4.21875 4.109375 -4.4375 C 4.109375 -4.613281 4.039062 -4.753906 3.90625 -4.859375 C 3.78125 -4.972656 3.597656 -5.03125 3.359375 -5.03125 L 2.8125 -5.03125 L 2.5625 -3.71875 Z M 2.9375 -1.21875 C 3.238281 -1.21875 3.46875 -1.285156 3.625 -1.421875 C 3.789062 -1.566406 3.875 -1.753906 3.875 -1.984375 C 3.875 -2.148438 3.800781 -2.296875 3.65625 -2.421875 C 3.519531 -2.554688 3.332031 -2.625 3.09375 -2.625 L 2.359375 -2.625 L 2.078125 -1.21875 Z M 2.9375 -1.21875 "/></g></g></g><g fill="#000000" fill-opacity="1"><g transform="translate(44.599595, 18.729266)"><g><path d="M 5.859375 -4.328125 C 5.859375 -3.921875 5.726562 -3.53125 5.46875 -3.15625 C 5.21875 -2.78125 4.828125 -2.5 4.296875 -2.3125 L 5.734375 0 L 3.9375 0 L 2.640625 -2.125 L 2.265625 -2.125 L 1.859375 0 L 0.28125 0 L 1.484375 -6.25 L 3.625 -6.25 C 4.0625 -6.25 4.445312 -6.164062 4.78125 -6 C 5.125 -5.84375 5.390625 -5.617188 5.578125 -5.328125 C 5.765625 -5.046875 5.859375 -4.710938 5.859375 -4.328125 Z M 2.796875 -4.9375 L 2.5 -3.40625 L 3.25 -3.40625 C 3.570312 -3.40625 3.816406 -3.484375 3.984375 -3.640625 C 4.160156 -3.796875 4.25 -3.992188 4.25 -4.234375 C 4.25 -4.441406 4.171875 -4.609375 4.015625 -4.734375 C 3.867188 -4.867188 3.671875 -4.9375 3.421875 -4.9375 Z M 2.796875 -4.9375 "/></g></g></g><g fill="#000000" fill-opacity="1"><g transform="translate(50.410198, 18.729266)"><g><path d="M 1.890625 0 L 0.328125 0 L 1.53125 -6.25 L 3.09375 -6.25 Z M 1.890625 0 "/></g></g></g><g fill="#000000" fill-opacity="1"><g transform="translate(53.248508, 18.729266)"><g><path d="M 2.84375 0 L 1.28125 0 L 2.203125 -4.828125 L 0.671875 -4.828125 L 0.953125 -6.25 L 5.5625 -6.25 L 5.296875 -4.828125 L 3.765625 -4.828125 Z M 2.84375 0 "/></g></g></g><g fill="#000000" fill-opacity="1"><g transform="translate(57.961236, 18.729266)"><g><path d="M 2.046875 0.109375 C 1.628906 0.109375 1.257812 0.03125 0.9375 -0.125 C 0.625 -0.289062 0.378906 -0.519531 0.203125 -0.8125 C 0.0351562 -1.101562 -0.046875 -1.4375 -0.046875 -1.8125 C -0.046875 -1.957031 -0.0390625 -2.070312 -0.03125 -2.15625 L 1.53125 -2.15625 C 1.519531 -2.113281 1.515625 -2.050781 1.515625 -1.96875 C 1.515625 -1.757812 1.566406 -1.597656 1.671875 -1.484375 C 1.785156 -1.367188 1.941406 -1.3125 2.140625 -1.3125 C 2.347656 -1.3125 2.515625 -1.378906 2.640625 -1.515625 C 2.773438 -1.648438 2.867188 -1.832031 2.921875 -2.0625 L 3.734375 -6.25 L 5.296875 -6.25 L 4.453125 -1.875 C 4.378906 -1.46875 4.226562 -1.113281 4 -0.8125 C 3.769531 -0.507812 3.484375 -0.28125 3.140625 -0.125 C 2.804688 0.03125 2.441406 0.109375 2.046875 0.109375 Z M 2.046875 0.109375 "/></g></g></g><g fill="#000000" fill-opacity="1"><g transform="translate(62.843553, 18.729266)"><g><path d="M 5.515625 -6.25 L 5.265625 -4.921875 L 2.796875 -4.921875 L 2.59375 -3.84375 L 4.96875 -3.84375 L 4.734375 -2.546875 L 2.34375 -2.546875 L 2.109375 -1.328125 L 4.671875 -1.328125 L 4.421875 0 L 0.28125 0 L 1.484375 -6.25 Z M 5.515625 -6.25 "/></g></g></g></svg>